<?xml version="1.0" encoding="UTF-8"?>
<svg id="Layer_1" xmlns="http://www.w3.org/2000/svg" version="1.1" viewBox="0 0 1000 1000">
  <!-- Generator: Adobe Illustrator 29.5.1, SVG Export Plug-In . SVG Version: 2.1.0 Build 141)  -->
  <defs>
    <style>
      .st0 {
        fill: #3cbbb1;
      }

      .st1 {
        fill: #fff;
        fill-rule: evenodd;
      }
    </style>
  </defs>
  <circle class="st0" cx="500" cy="500" r="469.64"/>
  <g id="SVGRepo_iconCarrier">
    <path id="_support-person_" class="st1" d="M306.24,582.04c1.73-24.73,2.87-49.53,5.36-74.18,1.73-27.98-.17-56.07-5.65-83.56-3.54-22.49-.98-42.91,14.42-60.71,3.06-3.68,5.56-7.78,7.45-12.17,7.64-16.04,19.93-29.41,35.28-38.36,12.15-7.69,24.85-14.57,37.48-21.49,14.84-8,31.18-12.83,47.99-14.18,6.38-.59,12.71-1.77,19.06-2.1,9.54-1.01,19.15-1.1,28.71-.26,15.13,2.24,29.74,4.72,44.86-.86,7.01-2.2,14.61-1.56,21.16,1.77,6.65,2.76,13.11,5.95,19.35,9.53,11.01,6.55,21.54,13.87,31.52,21.92,9.3,7.57,17.49,16.42,24.31,26.28,13.67,21.74,22.75,46.04,26.69,71.41,4.44,23.66,3.27,48.03-3.41,71.16-1.28,3.77-1.74,7.77-1.34,11.73,4.64,30.85,7.65,61.92,9.01,93.09.09,1.59-.04,3.72.89,4.59,1.47,1.39,4.28,3.18,5.53,2.6,12.42-5.6,24.72-11.43,36.75-17.81,2.55-1.75,4.17-4.56,4.4-7.64-.07-9.59-.99-19.17-1.78-28.73-.59-7.18-1.79-14.29-2.16-21.45-.69-18.4-2.36-36.75-5.01-54.97-4.16-26.05-6.99-52.31-10.51-78.43-2.65-15.83-7.98-31.1-15.76-45.14-11.71-22.79-27.15-43.45-45.69-61.14-26.58-25.65-60.02-35.98-93.82-45.81-8.47-2.54-17.53-2.4-25.92.4-16.66,5.72-33.98,9.26-51.54,10.53-33.29,4.68-65.69,14.29-96.15,28.51-17.66,7.88-32.73,20.58-43.49,36.65-16.8,24.43-32.07,50.08-37.48,79.89-3.42,18.82-5.26,37.95-7.56,56.97-1.54,12.68-2.93,25.43-3.77,38.17-1.14,8.74-1.14,17.59,0,26.33,2.75,15.78,4.01,31.79,3.74,47.81.36,40.86,0,81.74.43,122.63-.13,14.43-3,28.71-8.48,42.06-2.78,8.52-9.36,15.27-17.82,18.24-8.99,3.29-18.26,5.77-27.69,7.41-15.19,1.8-30.59-.36-44.71-6.26-15.89-6.22-28.66-18.51-35.48-34.16-4.49-9.37-8.54-18.95-13.03-28.33-9.75-22-15.37-45.6-16.57-69.63-2.58-27.23,1.71-54.67,12.46-79.81,2.54-5,4.47-10.29,5.75-15.76,2.7-14.35,11.22-26.94,23.54-34.77,3.86-2.82,7.06-6.54,10.79-9.59,16.93-13.82,35.56-21.15,57.9-15.62,7,1.74,8.61.51,10.12-6.31,1.91-8.61,2.58-17.45,4.82-25.93,12.86-48.89,28.24-96.8,57.3-139.04,3.6-5.3,7.56-10.34,11.85-15.1,29.27-33.3,67.81-57.12,110.68-68.42,40.22-10.72,81.67-16.1,123.29-15.99,4.8-.36,9.62-.11,14.35.73,34.85,9.48,69.36,19.83,97.07,44.89,7.71,6.97,15.93,13.38,23.65,20.33,18.28,17.02,31.9,38.43,39.58,62.2,6.36,16.44,10.44,33.67,12.14,51.21.01.81.08,1.61.2,2.4,4.68,19.42,8.25,39.09,10.69,58.92.19,4.55,4.03,8.08,8.57,7.89.52-.02,1.05-.09,1.56-.21,5.53-.8,10.99-2.2,16.48-3.14,15.87-3.05,32.3-.9,46.84,6.14,6.57,2.92,12.55,7.01,17.67,12.05,22.54,24.09,38.39,53.65,45.99,85.76,5.56,25.05,7.17,50.82,4.79,76.37-.17,4.01-.98,7.97-2.4,11.73-7.33,17.64-14.7,35.3-22.76,52.61-5.71,10.63-13.47,20.03-22.82,27.66-5.93,5.45-13.31,9.05-21.26,10.37-16.49,3.42-33.38,4.48-50.16,3.16-6.37-.59-12.67-1.75-18.83-3.47-13.77-3.28-23.67-15.35-24.19-29.5-1.06-10.33-.54-20.82-.86-31.22.05-4.77-.32-9.54-1.12-14.25-.35-1.68-4.01-4.35-5.09-3.91-14.08,5.58-28.07,11.44-41.78,17.87-2.26,1.06-3.72,5.04-4.4,7.93-1.99,8.58-3.83,17.19-4.95,25.88-1.48,14.37-6.97,28.03-15.85,39.43-5.49,6.87-10,14.53-14.81,21.91-10.65,16.12-25.02,29.45-41.9,38.85-19.42,11.1-39.41,21.2-58.94,32.13-15.58,8.39-33.17,12.3-50.83,11.31-18.42-.06-36.69-3.24-54.04-9.41-10.52-3.78-21.25-6.96-32.13-9.53-7-1.79-13.3-5.65-18.08-11.06-16.13-17.83-30.57-37.12-43.15-57.61-1.33-2.01-2.41-4.17-3.22-6.44-11.58-34.1-22.44-68.41-23.1-104.88-.25-13.63-.04-27.27-.04-40.87-.27-.12-.59-.15-.94-.17ZM187.66,566.73c-.65.15-1.28.37-1.88.67-.33.2-.43.79-.62,1.19l1.79-2.57c2.99-.12,5.13-1.14,5.13-4.6,2.31.05,4.61-.27,6.82-.93,3.98-1.93,8.15-2.75,10.26,1.39,1.72,3.45,2.08,7.42,1,11.12-2.51,5.8-5.59,11.34-9.19,16.54-7.97,12.77-16.25,25.32-24.05,38.16-1.64,3.49-2.91,7.14-3.77,10.9-4.8,1.74-3.95,6.1-4.52,9.79-.59.19-1.16.43-1.71.73-.32.25-.59.55-.79.9l1.82-2.34c3.54-1.75,5.45-5.67,4.64-9.53,2.83-.93,5.54-2.21,8.06-3.8,8.67-6.99,17.03-14.41,25.59-21.55,1.81-1.54,7.26.62,7.81,3.27,1,2.96,1.13,6.14.39,9.18-3.83,8.8-8.34,17.25-12.86,25.71-4.16,7.74-8.8,15.25-12.94,22.99-.93,2.15-1.54,4.43-1.8,6.76.03.78.26,1.54.68,2.2.93,2.13,2.2,2.3,3.66.42,5.83-7.59,11.47-15.35,17.5-22.72,3.51-3.45,8.71-4.53,13.31-2.78,4.02,2.72,6.43,7.25,6.44,12.11-.42,3.18-1.17,6.3-2.25,9.32-2.56,6.72-5.53,13.28-8.11,19.97-.88,2.2-1.32,4.55-1.31,6.93,0,1.2,1.69,3.39,2.57,3.38,3.94.11,7.87-.35,11.67-1.37,12.35-3.97,15.9-8.41,13.79-21.26-1.17-11.88-1.33-23.83-.49-35.74,0-14.39.04-28.81-.57-43.17-.73-16.75-2.29-33.47-3.18-50.22-.65-11.98-.48-24-1.32-35.97-.46-7.15-1.69-14.23-3.66-21.12-1.14-3.8-3.71-7-7.18-8.91-10.2-5.07-22.14-5.25-32.49-.48-14.97,8.07-26.16,21.72-31.13,37.99-.14.43.73,1.38,1.34,1.83.61.45,1.57.73,1.91.45,5.03-3.87,9.73-8.25,15-11.73,5.3-3.5,10.92-6.49,16.78-8.94,5.64-.92,11.32,1.46,14.62,6.13,2.19,3.52,1.98,8.02-.53,11.32-5.56,7.78-11.53,15.28-17.39,22.89-2.42,3.14-5.35,6.02-4.17,10.56-3.42-.18-4.64,1.83-4.68,4.95h0ZM769.16,614.18c3.41-2.03,5.17-5.99,4.4-9.89,6-1.61,11.94-3.55,18.01-4.73,5.74-.61,10.89,3.55,11.5,9.29,0,.06.01.13.02.19.28,8.05-2.18,15.95-7,22.4-6.22,10.22-12.77,20.24-18.93,30.49-2.49,4.14,1.47,5.26,4.04,6.75,3.46,2.36,8.15,1.76,10.89-1.41,4.55-6.06,13.09-7.4,19.27-3.01,2.78,1.68,6.36,1.17,8.56-1.22,8.31-7.62,13.94-17.72,16.04-28.8,6.53-23.95,7.42-49.09,2.6-73.44-3.98-20.3-8.15-40.59-12.39-60.87-.81-3.88-2.46-7.56-3.53-11.42-3.12-9.12-8.88-17.11-16.54-22.96-7.19-5.24-16.26-7.21-24.98-5.44-7.96.51-5.66,8.47-8.8,12.46-3.21,4.56-6.94,8.74-11.09,12.46-5.86,4.49-8.52,12.01-6.8,19.18.53,2.29,1.2,4.55,2,6.76,2.13-.49,4.17-1.3,6.05-2.4,5.6-4.44,10.59-9.77,16.51-13.71,4.05-2.45,8.59-4.01,13.3-4.55,5.89-.38,10.97,4.09,11.35,9.98.1,1.55-.14,3.1-.7,4.55-1.78,3.56-3.73,7.04-5.86,10.4-4.37,7.49-8.77,14.98-13.19,22.47-.61.23-1.18.53-1.72.89-.29.23-.35.73-.53,1.14.56-.87,1.11-1.76,1.65-2.63,3.93.17,7.82.74,11.63,1.69,11.16,4.02,13.37,13.4,8.8,20.46-5.61,8.61-11.29,17.14-16.86,25.76-4.27,6.6-8.43,13.27-12.64,19.91-3.24,2.24-4.94,6.11-4.4,10.01-3.16.05-4.53,2.02-5.13,4.79-1.93,1.16-3.76,2.48-5.47,3.95-.67.67-.45,2.29-.65,3.48,1.27-.48,3.22-.62,3.66-1.47.82-2.13,1.42-4.34,1.78-6.6,1.71-1.67,3.42-3.3,5.12-4.9ZM636.09,500.57c-.48-10.32-.89-21.53-1.57-32.74-.32-4.79-.93-9.55-1.84-14.26-.48-4.12-3.77-7.35-7.9-7.75-2.39-.28-4.81-.06-7.21-.26-37.26-2.03-72.09-19.15-96.44-47.42-3.66-4.24-7.06-8.74-10.94-12.77-1.96-2.31-5.42-2.59-7.73-.63-.26.22-.49.46-.7.72-7.13,7.56-13.55,15.85-21.15,22.88-31.83,29.61-70.58,50.75-112.7,61.49-24.31,6.3-20.96,5.23-20.92,29.04-.01,2.41.1,4.81.35,7.2,4.55,31.67,7.04,63.61,7.45,95.61-.01,4.01.32,8.02,1,11.97,6.06,40.45,19.74,79.38,40.31,114.74,6.2,12.25,15.85,22.43,27.76,29.27,12.77,6.46,25.87,12.28,38.85,18.29,1.5.61,3.09.92,4.71.93,11.93,1.41,24.02.67,35.68-2.2,28.64-7.8,55.31-21.53,78.29-40.31,20.84-17.85,32.72-40.89,43.38-65.12.35-.73.36-1.58.05-2.32-1.26-1.74-2.8-4.7-4.19-4.67-7.2-.1-14.38.53-21.45,1.88-17.62,5.28-35.7,8.84-54.01,10.64-3.01.75-5.41,3-6.36,5.95-1.92,11.11-6.72,21.52-13.93,30.18-9.43,13.59-35.64,18.9-48.16,13.57-14.32-5.43-26.8-14.84-35.96-27.12-9.89-13.18-11.65-30.76-4.58-45.65,13.82-28.06,47.78-39.6,75.84-25.78,1.24.61,2.46,1.27,3.66,1.97,1.39.8,2.71,1.71,3.95,2.73,6.49,6.19,16.22,7.52,24.14,3.29,11.07-4.61,22.74-7.63,34.66-8.95,12.61-2,24.93-5.57,36.65-10.64,8.79-2.5,14.64-10.8,14.01-19.92-.84-12-.12-24.05,2.15-35.86,5.64-18.95,4.35-37.97,4.86-57.98h0ZM381.92,382.22h1.25c.12,7.11.61,14.2,1.47,21.26,1.05,5.38,2.86,10.58,5.36,15.46,1.49,1.74,3.79,2.57,6.05,2.2,1.87-1.14,3-3.18,2.97-5.37-3.49-14.6-5.19-29.58-5.05-44.59,0-4.18-3.85-8.3-5.63-12.58-.9-2.13-1.83-2.7-3.5-1.03-1.08,1.07-2.72,2.35-2.76,3.58-.28,7.04-.15,14.06-.15,21.08ZM603.13,361.81c-.05-1.11-.38-2.2-.95-3.16-5.64-8.91-15.93-13.75-26.39-12.4-1.58.23-3.13,3.09-3.97,5.06-.34,1.54-.08,3.15.73,4.49,2.14,4.18,3.55.07,5.13-.73,2.1-1.01,4.46-3.66,6-3.25,3,.75,5.58,2.67,7.14,5.34,2.46,6.6,3.66,13.68,5.5,20.52.55,1.26,1.29,2.42,2.2,3.45.52-.6.94-1.27,1.24-2,1.1-5.37,2.1-10.78,3.35-17.31h0ZM541.93,335.67c.73,2.93,1.81,7.33,2.93,11.73,5.82-3.09,2.99-8.97,4.24-13.54.08-1.51-.25-3.01-.95-4.35-.23-.64-1.19-1.62-1.61-1.52-1.27.18-2.44.78-3.32,1.7-.7,1.93-1.14,3.94-1.28,5.99h0ZM446.55,388.56c-.04-1.54-.16-3.08-.37-4.6-.27-.72-.67-1.39-1.17-1.97-.83,1.7-1.45,3.5-1.83,5.36-.07.97,1.33,2.04,2.05,3.06.43-.59.87-1.22,1.3-1.83h0Z"/>
  </g>
</svg>