<?xml version="1.0" encoding="UTF-8"?>
<svg id="Layer_1" xmlns="http://www.w3.org/2000/svg" version="1.1" viewBox="0 0 1000 1000">
  <!-- Generator: Adobe Illustrator 29.5.1, SVG Export Plug-In . SVG Version: 2.1.0 Build 141)  -->
  <defs>
    <style>
      .st0 {
        fill: #3cbab0;
      }
    </style>
  </defs>
  <path class="st0" d="M602.91,591.79c27.77,28.86,66.54,32.33,99.36,9.2,39.72-27.99,77.81-58.89,118.05-86.33,8.4-8.12,8.18-19.88.78-28.49-34.96-22.21-68.49-53.93-103.55-75.14-1.37-.83-2.4-2.12-4.25-1.76v145.9c0,7.1-9.54,22.76-14.76,27.86-32.33,31.6-89.36,14.16-95.66-31.1v-256.91c3.43-39.5,50.04-64.68,84.11-42.5l270.55,196.12c31.84,27.4,32.71,72.85,2.19,101.58-64.69,47.68-130.47,93.87-195.4,141.22-22.15,16.15-72.63,60.7-97.48,63.18-26.01,2.59-63.92-14.25-63.92-44.25v-118.58Z"/>
  <path class="st0" d="M585.43,423.48c-21.36-23.38-54.82-32.1-84.55-19.52-7.7,3.26-13.98,8.24-20.39,13.49-48.71,39.88-93.92,88.05-142.63,128.41-23.45,17.71-49.24,16.61-72.56-.62-36.65-32.96-73.57-65.6-110.49-98.25-17.9-15.83-35.75-37.34-59.24-44.59-28.91-8.92-57.1.51-77.36,22.17v-129.51c0-44.45,63.18-67.19,94-36.08l189.61,169.94,181.95-163.39c20.08-19.03,44.62-28.32,71.1-15.33,14.59,7.16,30.56,27,30.56,43.76v129.51Z"/>
  <path class="st0" d="M526.19,415.06c30.91-1.52,55.6,20,59.28,50.45-3.75,77.4,4.85,159.29.01,236.16-4.12,65.47-92.54,73.88-109.94,12.57-3.56-83.65-.74-167.96-1.45-251.83,3.3-26.17,25.96-46.06,52.1-47.35Z"/>
  <path class="st0" d="M66.06,416.13c32.01-3.86,59.94,17.3,63.67,49.38-3.87,77.67,5.01,160.14.01,237.25-4.25,65.56-95.63,71.82-110.14,9.49-3.12-81.94-.67-164.43-1.26-246.57,2.46-24.55,23.03-46.58,47.71-49.55Z"/>
</svg>